<?xml version="1.0" encoding="utf-8"?>
<!-- Generator: Adobe Illustrator 16.0.0, SVG Export Plug-In . SVG Version: 6.00 Build 0)  -->
<!DOCTYPE svg PUBLIC "-//W3C//DTD SVG 1.1//EN" "http://www.w3.org/Graphics/SVG/1.1/DTD/svg11.dtd">
<svg version="1.1" id="Layer_1" xmlns="http://www.w3.org/2000/svg" xmlns:xlink="http://www.w3.org/1999/xlink" x="0px" y="0px"
	 width="48px" height="48px" viewBox="0 0 48 48" enable-background="new 0 0 48 48" xml:space="preserve">
<g>
	<path d="M25.612,28.962c0.319,0,0.577-0.258,0.577-0.577V20.68c0-0.318-0.258-0.577-0.577-0.577h-3.756
		c-0.319,0-0.577,0.258-0.577,0.577v7.706c0,0.318,0.258,0.577,0.577,0.577H25.612z"/>
	<path d="M30.245,30.865c0,1.149-0.964,2.047-2.113,2.047h-8.688c-1.149,0-2.113-0.898-2.113-2.047v-4.144H1v15.782
		C1,44.958,3.042,47,5.497,47h36.582c2.454,0,4.39-2.042,4.39-4.497V26.721H30.245V30.865z"/>
	<path d="M42.078,11.458h-3.509V8.887c0-4.085-3.279-7.355-7.364-7.355H16.369c-4.085,0-7.364,3.27-7.364,7.355v2.571H5.497
		C3.042,11.458,1,13.476,1,15.93v5.774h16.33v-3.482c0-1.149,0.964-2.067,2.113-2.067h8.688c1.149,0,2.113,0.918,2.113,2.067v3.482
		h16.223V15.93C46.468,13.476,44.532,11.458,42.078,11.458z M32.7,11.458H14.875V8.887c0-0.814,0.68-1.484,1.494-1.484h14.836
		c0.814,0,1.494,0.67,1.494,1.484V11.458z"/>
</g>
</svg>
