<?xml version="1.0" encoding="utf-8"?>
<!-- Generator: Adobe Illustrator 16.0.0, SVG Export Plug-In . SVG Version: 6.00 Build 0)  -->
<!DOCTYPE svg PUBLIC "-//W3C//DTD SVG 1.1//EN" "http://www.w3.org/Graphics/SVG/1.1/DTD/svg11.dtd">
<svg version="1.1" id="Layer_1" xmlns="http://www.w3.org/2000/svg" xmlns:xlink="http://www.w3.org/1999/xlink" x="0px" y="0px"
	 width="512px" height="512px" viewBox="0 0 512 512" enable-background="new 0 0 512 512" xml:space="preserve">
<path d="M456.42,305.955c-0.834-5.295-4.759-9.572-9.961-10.859c-0.872-0.215-71.379-17.925-123.181-49.804l-56.562-56.576
	c-31.844-51.777-49.596-122.305-49.811-123.174c-1.286-5.203-5.565-9.128-10.859-9.962c-5.293-0.834-10.572,1.585-13.396,6.14
	l-17.078,27.542c-9.682-8.73-24.245-12.872-36.144-9.729l-0.973,0.259c-42.168,12.918-68.946,39.696-81.863,81.863l-0.258,0.974
	c-2.961,13.143,1.392,27.9,11.09,37.599c0.729,0.729,1.494,1.433,2.272,2.092l0.294,0.241c32.075,25.631,63.309,52.74,93.259,80.913
	c-26.838,14.876-50.168,22.272-67.996,21.479c-2.969-0.132-5.679,1.683-6.688,4.479c-1.009,2.796-0.084,5.922,2.286,7.718
	l20.133,15.259L88.14,354.325c-1.961,1.882-2.611,4.751-1.653,7.293c0.348,0.924,0.882,1.738,1.552,2.408
	c1.177,1.177,2.772,1.907,4.501,1.983c20.176,0.897,42.373-3.433,66.34-12.889c-9.457,23.967-13.786,46.163-12.889,66.339
	c0.077,1.73,0.806,3.325,1.983,4.502c0.67,0.67,1.485,1.204,2.408,1.552c2.542,0.958,5.412,0.308,7.293-1.653l21.917-22.844
	l15.258,20.134c1.796,2.369,4.922,3.295,7.718,2.285c2.795-1.009,4.61-3.72,4.478-6.688c-0.792-17.828,6.604-41.159,21.481-67.999
	c28.188,29.964,55.298,61.198,80.912,93.263l0.245,0.299c0.657,0.775,1.359,1.537,2.086,2.265
	c9.698,9.698,24.457,14.053,37.599,11.094l0.978-0.259c42.17-12.923,68.947-39.7,81.861-81.865c0,0,7.035-21.217-9.47-37.115
	l27.542-17.077C454.835,316.527,457.254,311.249,456.42,305.955z M199.508,101.221c2.646,8.297,5.908,17.908,9.772,28.236
	c-5.276-6.201-10.505-12.439-15.675-18.717L199.508,101.221z M186.576,268.856c-31.956-30.331-65.39-59.483-99.773-86.967
	c-0.182-0.159-0.363-0.328-0.539-0.504c-3.135-3.135-5.27-8.371-4.02-12.497c10.398-33.443,30-53.046,63.446-63.445
	c3.783-1.262,9.22-0.221,13,4.559c2.096,2.622,4.204,5.238,6.319,7.85l4.047,4.964c24.407,29.881,50.045,58.988,76.598,86.963
	L186.576,268.856z M406.557,366.311c-10.395,33.441-29.996,53.044-63.443,63.446c-4.094,0.888-9.366-0.887-12.501-4.023
	c-0.175-0.175-0.343-0.354-0.501-0.535c-27.465-34.371-56.617-67.806-86.965-99.775l59.075-59.075
	c27.98,26.559,57.089,52.198,86.967,76.601l4.958,4.041c2.612,2.116,5.23,4.225,7.854,6.321c0.181,0.158,0.36,0.326,0.535,0.501
	C405.671,356.948,407.707,362.301,406.557,366.311z M401.259,318.396c-6.278-5.17-12.517-10.399-18.72-15.677
	c10.33,3.864,19.943,7.126,28.241,9.773L401.259,318.396z"/>
</svg>
