<?xml version="1.0" encoding="utf-8"?>
<!-- Generator: Adobe Illustrator 17.1.0, SVG Export Plug-In . SVG Version: 6.00 Build 0)  -->
<!DOCTYPE svg PUBLIC "-//W3C//DTD SVG 1.1//EN" "http://www.w3.org/Graphics/SVG/1.1/DTD/svg11.dtd">
<svg version="1.1" id="Capa_1" xmlns="http://www.w3.org/2000/svg" xmlns:xlink="http://www.w3.org/1999/xlink" x="0px" y="0px"
	 width="1000px" height="1000px" viewBox="0 0 1000 1000" enable-background="new 0 0 1000 1000" xml:space="preserve">
<path d="M830.9,500.4l92-62.5c13.5-9.2,14.7-28.6,2.5-39.4L830.9,315V500.4z"/>
<path d="M465.9,50.9L414,96.8h170l-51.9-45.9C513.2,34.2,484.8,34.2,465.9,50.9z"/>
<path d="M75.2,437.9l92,62.5V315l-94.5,83.5C60.4,409.3,61.7,428.8,75.2,437.9z"/>
<path d="M675.9,648l244.7,236.4c15.9,15.3,42.4,4.1,42.4-18V500.2c0-20.1-22.5-32-39-20.7L675.9,648z"/>
<path d="M77.4,884.4L322.1,648L74,479.5c-16.6-11.3-39,0.6-39,20.7v366.2C35,888.5,61.5,899.7,77.4,884.4z"/>
<path d="M893.3,906.7l-247-238.6l-109.4,74.3c-11.5,7.8-24.7,11.7-37.9,11.7s-26.4-3.9-37.9-11.7l-109.4-74.3l-247,238.6
	c-16.2,15.6-5.1,43,17.4,43h753.9C898.4,949.6,909.5,922.3,893.3,906.7z"/>
<path d="M380,126.8H247.1c-27.6,0-50,22.4-50,50v109.1v2.6v232.3l0,0l271.7,188.5c8.9,6.7,19.5,10.1,30.1,10.1s21.2-3.4,30.1-10.1
	l271.7-188.5V288.5v-2.6V176.8c0-27.6-22.4-50-50-50H618h-23.4H403.4H380z M331,466.5c0-8.3,6.7-15,15-15h306c8.3,0,15,6.7,15,15
	s-6.7,15-15,15H346C337.7,481.5,331,474.8,331,466.5z M652,314c8.3,0,15,6.7,15,15s-6.7,15-15,15H346c-8.3,0-15-6.7-15-15
	s6.7-15,15-15H652z"/>
</svg>
