<?xml version="1.0" encoding="utf-8"?>
<!-- Generator: Adobe Illustrator 16.0.0, SVG Export Plug-In . SVG Version: 6.00 Build 0)  -->
<!DOCTYPE svg PUBLIC "-//W3C//DTD SVG 1.1//EN" "http://www.w3.org/Graphics/SVG/1.1/DTD/svg11.dtd">
<svg version="1.1" xmlns="http://www.w3.org/2000/svg" xmlns:xlink="http://www.w3.org/1999/xlink" x="0px" y="0px" width="50px"
	 height="50px" viewBox="0 0 50 50" enable-background="new 0 0 50 50" xml:space="preserve">
<g id="Layer_2" display="none">
	
		<rect x="5" y="5" display="inline" fill="none" stroke="#000000" stroke-width="0.25" stroke-linecap="round" stroke-linejoin="round" stroke-miterlimit="10" width="40" height="40"/>
</g>
<g id="Layer_1">
	<g>
		<path d="M7.62,40.019V6.636h26.963v28.037l5.136-4.244V4.068c0-1.418-1.149-2.568-2.567-2.568h-32.1
			c-1.418,0-2.567,1.15-2.567,2.568v38.519c0,1.418,1.149,2.568,2.567,2.568H27.46l-3.63-5.136H7.62z"/>
		<path d="M47.113,29.109c-0.473-0.446-1.2-0.467-1.699-0.056l-11.778,9.734l-7.849-4.709c-0.521-0.313-1.188-0.218-1.603,0.228
			c-0.412,0.445-0.457,1.118-0.106,1.614l8.507,12.037c0.238,0.337,0.624,0.539,1.037,0.543c0.003,0,0.007,0,0.011,0
			c0.409,0,0.794-0.194,1.036-0.525l12.599-17.173C47.649,30.28,47.585,29.554,47.113,29.109z" style="fill: #1aa1e1;"/>
		<path d="M28.806,10.488H13.397c-1.418,0-2.567,1.15-2.567,2.568s1.149,2.568,2.567,2.568h15.408c1.418,0,2.567-1.15,2.567-2.568
			S30.224,10.488,28.806,10.488z"/>
		<path d="M28.806,18.191H13.397c-1.418,0-2.567,1.15-2.567,2.568c0,1.418,1.149,2.568,2.567,2.568h15.408
			c1.418,0,2.567-1.149,2.567-2.568C31.373,19.341,30.224,18.191,28.806,18.191z"/>
		<path d="M28.806,25.895H13.397c-1.418,0-2.567,1.15-2.567,2.568c0,1.418,1.149,2.568,2.567,2.568h15.408
			c1.418,0,2.567-1.15,2.567-2.568C31.373,27.045,30.224,25.895,28.806,25.895z"/>
	</g>
</g>
</svg>
